<svg width="13" height="16" viewBox="0 0 13 16" fill="none" xmlns="http://www.w3.org/2000/svg">
<path d="M12.1634 2.26726H9.58287V0H3.41522V2.26726H0.834705C0.372466 2.26726 0 2.64164 0 3.10197C0 3.5623 0.374376 3.93667 0.834705 3.93667H12.1653C12.6275 3.93667 13 3.5623 13 3.10197C13 2.64164 12.6256 2.26726 12.1653 2.26726H12.1634ZM8.57053 2.26726H4.42565V1.01043H8.57053V2.26726Z" fill="#BBBBBB"/>
<path d="M1.125 12.7535C1.125 14.0046 2.13925 15.0188 3.39035 15.0188H9.60957C10.8607 15.0188 11.8749 14.0046 11.8749 12.7535V5.02148H1.125V12.7535ZM8.87801 7.39189C8.87801 6.98123 9.21228 6.64696 9.62294 6.64696C10.0336 6.64696 10.3679 6.98123 10.3679 7.39189V12.1499C10.3679 12.5606 10.0336 12.8948 9.62294 12.8948C9.21228 12.8948 8.87801 12.5606 8.87801 12.1499V7.39189ZM5.75312 7.39189C5.75312 6.98123 6.08739 6.64696 6.49805 6.64696C6.90872 6.64696 7.24298 6.98123 7.24298 7.39189V12.1499C7.24298 12.5606 6.90872 12.8948 6.49805 12.8948C6.08739 12.8948 5.75312 12.5606 5.75312 12.1499V7.39189ZM2.62823 7.39189C2.62823 6.98123 2.9625 6.64696 3.37316 6.64696C3.78383 6.64696 4.11809 6.98123 4.11809 7.39189V12.1499C4.11809 12.5606 3.78383 12.8948 3.37316 12.8948C2.9625 12.8948 2.62823 12.5606 2.62823 12.1499V7.39189Z" fill="#BBBBBB"/>
</svg>
