<svg width="15" height="13" viewBox="0 0 15 13" fill="none" xmlns="http://www.w3.org/2000/svg">
<g id="_&#234;&#178;&#169;&#235;&#166;&#172;_&#235;&#170;&#168;&#235;&#147;&#156;" clip-path="url(#clip0_1386_6412)">
<path id="Vector" d="M13.1472 9.02205C14.2918 8.06544 14.9977 6.75467 14.9977 5.31063C14.9996 2.37874 12.0923 0 8.50588 0C5.55663 0 3.06903 1.60834 2.27734 3.81C3.22736 3.32622 4.34335 3.04873 5.53564 3.04873C8.99806 3.04873 11.8138 5.39826 11.8138 8.28634C11.8138 8.97276 11.6535 9.62814 11.3636 10.2306C13.2827 11.3789 14.7802 10.5537 14.7802 10.5537C13.8206 10.0937 13.3628 9.5113 13.1472 9.02387V9.02205Z" fill="#3983A0"/>
<path id="Vector_2" d="M5.53606 3.75879C2.47806 3.75879 0 5.78519 0 8.28624C0 9.51851 0.602823 10.6339 1.57764 11.45C1.39451 11.8662 1.00343 12.3628 0.185044 12.7553C0.185044 12.7553 1.52995 13.4965 3.22587 12.4011C3.92789 12.6658 4.71003 12.8137 5.53415 12.8137C8.59214 12.8137 11.0702 10.7873 11.0702 8.28624C11.0702 5.78519 8.59214 3.75879 5.53415 3.75879H5.53606ZM2.98741 8.92702C2.6364 8.92702 2.35025 8.65319 2.35025 8.31728C2.35025 7.98137 2.6364 7.70753 2.98741 7.70753C3.33842 7.70753 3.62457 7.98137 3.62457 8.31728C3.62457 8.65319 3.33842 8.92702 2.98741 8.92702ZM5.53606 8.92702C5.18504 8.92702 4.89889 8.65319 4.89889 8.31728C4.89889 7.98137 5.18504 7.70753 5.53606 7.70753C5.88707 7.70753 6.17322 7.98137 6.17322 8.31728C6.17322 8.65319 5.88707 8.92702 5.53606 8.92702ZM8.0847 8.92702C7.73369 8.92702 7.44754 8.65319 7.44754 8.31728C7.44754 7.98137 7.73369 7.70753 8.0847 7.70753C8.43571 7.70753 8.72186 7.98137 8.72186 8.31728C8.72186 8.65319 8.43571 8.92702 8.0847 8.92702Z" fill="#3983A0"/>
</g>
<defs>
<clipPath id="clip0_1386_6412">
<rect width="15" height="13" fill="white"/>
</clipPath>
</defs>
</svg>
