<svg width="14" height="14" viewBox="0 0 14 14" fill="none" xmlns="http://www.w3.org/2000/svg">
<path d="M3.50664 14C3.22078 13.9987 2.94274 13.9026 2.71281 13.7258C2.48004 13.5537 2.30679 13.3081 2.21881 13.0254C2.13082 12.7427 2.1328 12.4379 2.22444 12.1565L3.25422 8.85406L0.556301 6.81435C0.325693 6.63985 0.154062 6.39382 0.0660082 6.11151C-0.0220459 5.8292 -0.0220013 5.52511 0.0661338 5.24283C0.154269 4.96054 0.325969 4.71456 0.556627 4.54014C0.787285 4.36571 1.06506 4.27178 1.35013 4.27184H4.68275L5.71436 0.971361C5.79924 0.687723 5.9696 0.440092 6.20022 0.26515C6.43083 0.0902075 6.70942 -0.00274798 6.99473 6.18765e-05C7.27998 -0.00244379 7.55844 0.0906234 7.78899 0.265522C8.01954 0.44042 8.18997 0.687885 8.27511 0.971361L9.30489 4.27184H12.6393C12.9243 4.27219 13.2018 4.3664 13.4321 4.54097C13.6625 4.71555 13.8339 4.96154 13.9218 5.24373C14.0097 5.52592 14.0096 5.82984 13.9215 6.11196C13.8334 6.39408 13.6618 6.63994 13.4313 6.81435L10.7371 8.85406L11.7669 12.1565C11.8553 12.4386 11.8555 12.7427 11.7675 13.025C11.6796 13.3073 11.5079 13.5533 11.2773 13.7276C11.0466 13.902 10.7688 13.9957 10.4838 13.9954C10.1987 13.9951 9.92111 13.9007 9.69083 13.7258L6.99291 11.686L4.29681 13.7258C4.06789 13.9018 3.79125 13.9979 3.50664 14Z" fill="#FFCE4F"/>
</svg>
